<svg id="Layer_2" data-name="Layer 2" xmlns="http://www.w3.org/2000/svg" viewBox="0 0 447.77 177.59"><defs><style>.cls-1{fill:#262b66;}</style></defs><path class="cls-1" d="M138.93,78.59,128.87,84c.12.91.2,1.82.25,2.75,0,.67,0,1.35,0,2a37.84,37.84,0,0,1-18.72,32.72l-.09,0c-.69.42-1.41.81-2.14,1.17l-.09,0a37.89,37.89,0,0,1-39.28-3.34c-.74-.54-1.47-1.11-2.16-1.7a37.52,37.52,0,0,1-5.88-6.26l9.67-5.24A27.48,27.48,0,0,0,77.23,112a28.68,28.68,0,0,0,2.69,1.42,27.12,27.12,0,0,0,23.55-.45l1.25-.67.06,0a27.18,27.18,0,0,0,13.54-22.54l-12.88,7a16.43,16.43,0,0,1-6.11,6.19l-.35.19a16.18,16.18,0,0,1-7.75,2,16.43,16.43,0,0,1-10.88-4.18l8.33-4.51L99,90.82l8.33-4.52L117.17,81l9.67-5.25,9.61-5.2,5.86-3.18A5.41,5.41,0,0,0,144.54,60l0-.1a5.42,5.42,0,0,0-7.34-2.11L131.28,61a48.22,48.22,0,0,0-7.34-8.34A48.57,48.57,0,0,0,91.23,40.05a49.89,49.89,0,0,0-25.48,7.18,49,49,0,0,0-19.6,23,48.07,48.07,0,0,0-3.49,14.21q-.21,2.19-.21,4.44a49.49,49.49,0,0,0,.6,7.66l10.3-5.58A44.5,44.5,0,0,1,55,77.73,38.35,38.35,0,0,1,75.07,54.5a38,38,0,0,1,38.58,3.72,38.59,38.59,0,0,1,8,8L112,71.43a27.11,27.11,0,0,0-32.24-7.16L77,65.79A27.06,27.06,0,0,0,64.42,84.91a27,27,0,0,0,.89,11.84L55.64,102,46,107.2l-5.85,3.17A5.42,5.42,0,0,0,38,117.69l0,.09a5.42,5.42,0,0,0,7.34,2.11l5.87-3.18a48.91,48.91,0,0,0,5.42,6.5c.63.63,1.27,1.24,1.93,1.83a48.78,48.78,0,0,0,54.26,7.54l0,0,3.12-1.69h0a48.9,48.9,0,0,0,20.29-23.32h0a47.86,47.86,0,0,0,3.52-14.22c.14-1.47.2-3,.2-4.48a49.3,49.3,0,0,0-.59-7.63C139.28,80.32,139.12,79.45,138.93,78.59ZM82.56,75.07a16.55,16.55,0,0,1,1.9-1,16.29,16.29,0,0,1,17.69,2.74l-8.31,4.5L83.48,86.89l-8.3,4.51A15.64,15.64,0,0,1,75,88.83,16.26,16.26,0,0,1,82.56,75.07Z"/><path class="cls-1" d="M166.76,98.39c.41,7.52,3.12,10.68,9.47,10.68,4.92,0,7.48-1.81,7.59-5.38h9.69c-.19,7.7-6.57,12.21-17.69,12.21-6.77,0-11.58-1.69-14.47-5S157,102.57,157,96c0-13.34,5.75-20.06,19-20.06,12.81,0,18.33,6.68,18.33,19.91,0,.71-.07,2-.07,2.55Zm.08-5.56h17.54c-.49-7.17-3-10-8.49-10C170,82.84,167.32,85.66,166.84,92.83Z"/><path class="cls-1" d="M222.36,76.23v7.59a15.76,15.76,0,0,0-3.53-.38,9.57,9.57,0,0,0-7.33,3.08c-1.92,2.07-2.89,4.89-2.89,8.53v20.1h-9.77V76.68h9.39v6.23q3.84-7,10.9-7A17.06,17.06,0,0,1,222.36,76.23Z"/><path class="cls-1" d="M226,72.51V63.15h9.92v9.36Zm.07,42.64V76.68h9.77v38.47Z"/><path class="cls-1" d="M269.05,115.15,257.36,97l-4.54,4.29v13.86h-9.77V61.27h9.77V90.13l13.94-13.45h12.36L263.82,91l16.76,24.16Z"/><path class="cls-1" d="M298.91,115.9q-17.31,0-17.74-12.36h9.7c0,3.95,2.7,5.94,8.08,5.9,5.18,0,7.77-1.88,7.77-5.67,0-3-1.88-4.7-5.6-5l-5.48-.64c-8.72-.82-13.08-4.47-13.08-10.89,0-7.56,5.41-11.31,16.23-11.31,11.46,0,16.31,3.9,16.42,11.31h-9.16c0-3.39-2.33-5.08-7-5.11s-7,1.57-7,4.77c0,2.74,1.84,4.28,5.49,4.62l5.82.64c4,.41,7.14,1.43,9.43,3.12s3.42,4.47,3.42,8.26Q316.19,115.89,298.91,115.9Z"/><path class="cls-1" d="M338.2,115.9c-6.72,0-11.61-1.65-14.61-4.92S319,102.68,319,95.91s1.5-11.83,4.55-15.1,7.89-4.88,14.61-4.88c13.45,0,19.24,6.35,19.24,20q0,10.16-4.59,15.07T338.2,115.9Zm9.43-20c0-4.54-.71-7.85-2.18-9.84s-3.87-3-7.25-3c-6.8,0-9.39,3.94-9.39,12.84s2.63,12.85,9.39,12.85S347.63,104.82,347.63,95.91Z"/><path class="cls-1" d="M395.49,79.87c2,2.63,3,6.35,3,11.2v24.08h-9.85V91.22c0-5.45-2.14-8.08-7.06-8.08a9.67,9.67,0,0,0-6.88,2.37,8.23,8.23,0,0,0-2.59,6.31v23.33h-9.77V76.68h9.39v5.37c2.86-4.09,7.33-6.12,13.45-6.12C390,75.93,393.46,77.24,395.49,79.87Z"/><path class="cls-1" d="M404.6,114.82a4.25,4.25,0,0,1-1.88-1.56,4.21,4.21,0,0,1-.71-2.37,4,4,0,0,1,1.24-3,4.26,4.26,0,0,1,6,0,4,4,0,0,1,1.24,3,4.25,4.25,0,0,1-4.25,4.26A4.19,4.19,0,0,1,404.6,114.82Zm-.78-1.45a3.3,3.3,0,0,0,2.43,1,3.24,3.24,0,0,0,2.44-1,3.52,3.52,0,0,0,1-2.49,3.44,3.44,0,0,0-1-2.47,3.27,3.27,0,0,0-2.44-1,3.23,3.23,0,0,0-2.42,1,3.44,3.44,0,0,0-1,2.47A3.48,3.48,0,0,0,403.82,113.37Zm1.62-.24h-.86v-4.65h1.74a2,2,0,0,1,1.17.31,1,1,0,0,1,.47.93,1,1,0,0,1-.33.76,1.51,1.51,0,0,1-.83.37,1,1,0,0,1,.76.65l.7,1.63h-.92l-.58-1.39a1.07,1.07,0,0,0-.33-.47,1,1,0,0,0-.58-.13h-.41Zm0-4v1.38H406c.75,0,1.12-.25,1.12-.74s-.38-.64-1.14-.64Z"/><path class="cls-1" d="M166.76,98.39c.41,7.52,3.12,10.68,9.47,10.68,4.92,0,7.48-1.81,7.59-5.38h9.69c-.19,7.7-6.57,12.21-17.69,12.21-6.77,0-11.58-1.69-14.47-5S157,102.57,157,96c0-13.34,5.75-20.06,19-20.06,12.81,0,18.33,6.68,18.33,19.91,0,.71-.07,2-.07,2.55Zm.08-5.56h17.54c-.49-7.17-3-10-8.49-10C170,82.84,167.32,85.66,166.84,92.83Z"/></svg>