<svg viewBox="0 0 214 45" version="1.1" xmlns="http://www.w3.org/2000/svg" xmlns:xlink="http://www.w3.org/1999/xlink"
    xml:space="preserve" xmlns:serif="http://www.serif.com/"
    style="fill-rule:evenodd;clip-rule:evenodd;stroke-linejoin:round;stroke-miterlimit:2;">
    <path
        d="M136.066,28.058l7.92,0l-4.027,-8.77l-3.893,8.77Zm23.49,16.376l-8.725,0c-1.387,-3.222 -3.937,-9.575 -3.937,-9.575l-13.513,0l-3.848,9.575l-9.307,0c3.49,-8.322 6.175,-14.407 9.128,-21.253c3.222,-7.427 6.219,-14.05 10.291,-22.954l19.911,44.207Zm-143.761,-16.376l7.92,0l-4.027,-8.77l-3.893,8.77Zm23.49,16.376l-8.725,0c-1.387,-3.222 -3.937,-9.575 -3.937,-9.575l-13.513,0l-3.848,9.575l-9.262,0c3.49,-8.326 6.175,-14.408 9.128,-21.253c3.221,-7.428 6.219,-14.05 10.291,-22.954l19.866,44.207Zm21.745,-44.426c7.562,0 11.9,5.817 11.9,12.528c0,4.7 -2.685,10.962 -8.993,11.947l11.635,19.951l-9.978,0l-11.454,-19.777c-0.055,0.043 -0.088,0.109 -0.089,0.179l0,19.6l-8.86,0l0,-44.428l15.839,0Zm53.87,3.262l0,8.591c-3.714,-2.6 -7.785,-4.564 -12.394,-4.474c-23.132,0.582 -15.929,44.252 12.3,25.146l0,8.635c-3.937,2.55 -11.812,4.564 -16.421,3.624c-28.406,-5.638 -21.336,-45.236 3.541,-44.784c4.519,0.089 9.172,0.626 12.976,3.266l-0.002,-0.004Zm75.035,25.862c5.5,-9.172 10.828,-19.106 16.287,-28.949l8.143,44.3l-8.188,0l-3.49,-19.911l-12.392,20.086c0,0 -0.134,0 -0.358,0.224l-12.8,-20.045c-1.477,6.309 -2.6,12.976 -3.893,19.6l-7.741,0l8.103,-44.029l16.331,28.725l-0.002,-0.001Zm-135.929,-21.97l0,12.346c1.029,0 1.969,0.045 2.685,0.045c3.4,0 7.517,-0.984 7.517,-6c0,-3.937 -3.087,-6.4 -6.8,-6.4l-3.402,0.009Z"
        style="fill:#000;fill-rule:nonzero;" />
</svg>