<?xml version="1.0" encoding="utf-8"?>
<!-- Generator: Adobe Illustrator 22.1.0, SVG Export Plug-In . SVG Version: 6.00 Build 0)  -->
<svg version="1.1" id="Laag_1" xmlns="http://www.w3.org/2000/svg" xmlns:xlink="http://www.w3.org/1999/xlink" x="0px" y="0px"
	 viewBox="0 0 118.5 118.5" style="enable-background:new 0 0 118.5 118.5;" xml:space="preserve">
<style type="text/css">
	.st0{fill:#E30613;}
	.st1{fill-rule:evenodd;clip-rule:evenodd;fill:#FFFFFF;}
	.st2{fill:#FFFFFF;}
</style>
<g>
	<rect class="st0" width="118.5" height="118.5"/>
	<g>
		<path class="st1" d="M38.5,61.3c-2.2,1-5-0.1-5.9-1.9c0,0-5.4-10.4-5.4-10.4c-1.2-0.1-2.3-0.5-3.1-1.5c-0.4-0.5-0.7-1.2-0.8-1.9
			c-0.3-1.5,0.1-2.9,0.8-4.2c1.5-2.6,4.6-4.4,7.4-3.4c1.2,0.5,2.3,1.5,3,2.7l6.8,14C42.4,57.2,41.3,60.1,38.5,61.3L38.5,61.3z
			 M41,64c-3.9,1.9-8.2,2.7-12.4,1.3C22.1,63,17.8,57,17.1,50.4c-0.9-8.5,6.3-15.8,14.5-16.5c2.4-0.2,4.7,0.2,6.9,0.8
			c5.4,1.9,9.1,6.6,10.4,12.3C50.4,53.9,47,60.8,41,64L41,64z M71.2,54.7L56.8,35c-0.5-0.7-1.3-1-2-1l-2.4,0c-1,0-1.8,0.8-1.8,1.8
			v28.2c0,1,0.8,1.8,1.8,1.8l0,0c1,0,1.8-0.8,1.8-1.8V44.5l0.1,0.2l14.3,20c0.5,0.7,1.3,1,2.1,1h2.5c1,0,1.8-0.8,1.8-1.8V35.8
			c0-1-0.8-1.8-1.8-1.8l0,0c-1,0-1.8,0.8-1.8,1.8v19.1L71.2,54.7z M95,51.6c1,0,1.8-0.8,1.8-1.8c0-1-0.8-1.8-1.8-1.8h-8.5V37.6h12.6
			c1,0,1.8-0.8,1.8-1.8c0-1-0.8-1.8-1.8-1.8H84.7c-0.2,0-0.4-0.1-0.6-0.1h-3.7c-1.4,0-2.5,1.1-2.5,2.5v26.7c0,1.2,0.9,2.3,2.1,2.5
			l0,0h19.2c1,0,1.8-0.8,1.8-1.8c0-1-0.8-1.8-1.8-1.8H86.6V51.6H95z M23,74.5v2.6h4.5v3.6H23v6h-4.4v-16h9.1v3.8H23z M36.3,87.1
			c-5,0-7.5-3-7.5-8.1c0-5.2,3.7-8.6,8.1-8.6c4.2,0,7.5,2.3,7.5,8.1C44.4,83.7,40.8,87.1,36.3,87.1z M36.6,74.4
			c-1.5,0-3.1,1.2-3.1,4.2c0,2.7,0.9,4.4,3,4.4c1.4,0,3.2-0.9,3.2-4.3C39.7,75.9,38.7,74.4,36.6,74.4z M53.6,86.8l-3-5.8h-0.2v5.8
			H46v-16c1.5-0.1,3.5-0.1,5.5-0.1c4.1,0,6.4,1.4,6.4,5c0,1.9-1.1,3.7-2.9,4.4c0.4,0.6,0.8,1.2,1.2,1.9l2.9,4.9H53.6z M51.3,74.3
			c-0.3,0-0.7,0-0.8,0v3.4c0.2,0,0.5,0,0.7,0c1.2,0,2-0.6,2-1.8C53.2,75,52.7,74.3,51.3,74.3z M74.7,86.8l-0.8-2.6h-4.9l-0.8,2.6
			h-4.4l5.2-16H74l5.5,16H74.7z M72.1,78.7c-0.3-0.9-0.6-1.8-0.7-2.8h0c-0.1,0.9-0.5,2-0.8,3L70,80.7h2.8L72.1,78.7z M80.3,86.8v-16
			h4.4v12.1h4.4v3.9H80.3z M90.6,86.8v-16H95v12.1h4.4v3.9H90.6z"/>
		<g>
			<path class="st2" d="M96.4,21.5c2.6,0,4.6,2,4.6,4.6c0,2.6-2.1,4.6-4.7,4.6c-2.6,0-4.7-2-4.7-4.6C91.7,23.5,93.8,21.5,96.4,21.5
				L96.4,21.5z M96.4,22.4c-2,0-3.5,1.6-3.5,3.6c0,2,1.5,3.6,3.6,3.6c2,0,3.5-1.6,3.5-3.6C99.9,24.1,98.4,22.4,96.4,22.4L96.4,22.4z
				 M95.7,28.4h-1.1v-4.6c0.4-0.1,1-0.1,1.8-0.1c0.9,0,1.3,0.1,1.6,0.4c0.3,0.2,0.5,0.5,0.5,1c0,0.6-0.4,0.9-0.9,1.1v0.1
				c0.4,0.1,0.7,0.5,0.8,1.1c0.1,0.7,0.3,0.9,0.3,1.1h-1.1c-0.1-0.2-0.2-0.6-0.4-1.1c-0.1-0.5-0.4-0.7-0.9-0.7h-0.5V28.4z
				 M95.7,25.9h0.5c0.6,0,1.1-0.2,1.1-0.7c0-0.4-0.3-0.7-1-0.7c-0.3,0-0.5,0-0.6,0.1V25.9z"/>
		</g>
	</g>
</g>
</svg>
