<?xml version="1.0" encoding="UTF-8"?>
<svg viewBox="0 0 528 149" version="1.1" xmlns="http://www.w3.org/2000/svg" xmlns:xlink="http://www.w3.org/1999/xlink">
    <g id="Symbols" stroke="none" stroke-width="1" fill="none" fill-rule="evenodd">
        <g id="Static-/-logo" transform="translate(0.372384, -173.000000)" fill="#000">
            <g id="logo" transform="translate(0.000000, 173.000000)">
                <path
                    d="M70.1990375,93.5564485 C75.1951396,91.1725217 79.8108277,87.9263234 83.8432146,83.8939365 C93.0999519,74.6371992 98.1974976,62.3117902 98.1974976,49.2001925 C98.1974976,36.0885948 93.0999519,23.7885467 83.8432146,14.5064485 C74.5864774,5.24971126 62.2610683,0.152165544 49.1494706,0.152165544 C22.1147257,0.152165544 0.101443696,22.1400866 0.101443696,49.2001925 L0.101443696,125.967709 L0.101443696,136.644658 L21.4299808,136.644658 L21.4299808,125.967709 L21.4299808,49.2001925 C21.4299808,41.7948027 24.3211261,34.8205486 29.5454764,29.5961983 C34.7698268,24.3718479 41.7440808,21.4807026 49.1494706,21.4807026 C56.5548604,21.4807026 63.5291145,24.3718479 68.7534649,29.5961983 C74.0031761,34.8205486 76.8689605,41.7948027 76.8689605,49.2001925 C76.8689605,64.4928296 64.4421078,76.9196824 49.1494706,76.9196824 L23.4334937,76.9196824 L41.6426372,95.1288258 L80.039076,133.525265 L83.3106352,136.796824 L113.515496,136.847546 L95.1034649,118.435515 L70.1990375,93.5564485 L70.1990375,93.5564485 Z"
                    id="Path"></path>
                <path
                    d="M155.868239,21.5060635 C155.817517,21.5060635 191.525698,21.5060635 207.198749,21.5060635 L260.279163,148.919346 L322.210539,0.304331088 L299.157459,0.177526468 L260.279163,93.4803657 L221.50231,0.177526468 L204.890905,0.25360924 L204.840183,0.177526468 L155.792156,0.177526468 C136.086718,0.177526468 106.744129,13.2384023 106.744129,49.2255534 L106.744129,87.6219923 C106.744129,89.8283927 107.149904,109.50847 121.250577,123.583782 C129.924013,132.257218 141.539317,136.670019 155.792156,136.670019 L204.840183,136.670019 L204.840183,115.341482 L155.792156,115.341482 C129.746487,115.341482 128.123388,92.1869586 128.072666,87.5459095 C128.072666,87.5712705 128.072666,84.0207411 128.072666,79.0753609 L204.840183,79.0753609 L204.840183,57.7468239 L128.072666,57.7468239 C128.072666,52.8014437 128.072666,49.2255534 128.072666,49.2255534 C128.072666,23.1798845 151.22719,21.5567854 155.868239,21.5060635 L155.868239,21.5060635 Z"
                    id="Path"></path>
                <path
                    d="M516.196246,115.341482 L477.825168,115.341482 C451.7795,115.341482 450.1564,92.1869586 450.105679,87.5459095 C450.105679,87.6219923 450.105679,10.8291145 450.105679,10.8291145 L450.105679,0.177526468 L428.777141,0.177526468 L366.947209,0.177526468 C347.241771,0.177526468 317.899182,13.2384023 317.899182,49.2255534 L317.899182,87.6219923 C317.899182,89.8283927 318.304957,109.50847 332.380269,123.583782 C341.053705,132.257218 352.69437,136.670019 366.947209,136.670019 L415.995236,136.670019 L415.995236,115.341482 L366.947209,115.341482 C340.90154,115.341482 339.278441,92.1869586 339.227719,87.5459095 C339.227719,87.5712705 339.227719,84.0207411 339.227719,79.0753609 L415.995236,79.0753609 L415.995236,57.7468239 L339.227719,57.7468239 C339.227719,52.8014437 339.227719,49.2255534 339.227719,49.2255534 C339.227719,23.1798845 362.382243,21.5567854 367.023292,21.5060635 C366.97257,21.5060635 428.802502,21.5060635 428.802502,21.5060635 L428.802502,87.6219923 C428.802502,89.8283927 429.208277,109.50847 443.28359,123.583782 C451.957026,132.257218 463.572329,136.670019 477.850529,136.670019 L516.221607,136.670019 L526.898556,136.670019 L526.898556,115.341482 L516.196246,115.341482 L516.196246,115.341482 Z"
                    id="Path"></path>
                <path
                    d="M512.7218,26.9586622 C520.355438,26.9586622 526.518142,20.9227623 526.518142,13.4159288 C526.518142,6.06126083 520.330077,0.025360924 512.7218,0.025360924 C505.03744,0.025360924 498.849374,6.06126083 498.849374,13.4159288 C498.824013,20.9227623 505.03744,26.9586622 512.7218,26.9586622 L512.7218,26.9586622 Z M512.7218,2.66289702 C518.884504,2.66289702 523.905967,7.45611165 523.905967,13.4159288 C523.905967,19.5532724 518.909865,24.3211261 512.7218,24.3211261 C506.457652,24.3211261 501.46155,19.5532724 501.46155,13.4159288 C501.46155,7.45611165 506.457652,2.66289702 512.7218,2.66289702 L512.7218,2.66289702 Z M514.9282,14.0499519 C517.66718,13.9738691 519.822859,12.8579885 519.822859,9.89076035 C519.822859,8.62271415 519.239557,7.3039461 518.098316,6.64456208 C516.906352,5.98517806 515.612945,5.93445621 514.319538,5.93445621 L507.573532,5.93445621 L507.573532,20.998845 L509.856015,20.998845 L509.856015,14.0499519 L512.569634,14.0499519 L516.982435,20.998845 L519.619971,20.998845 L514.9282,14.0499519 L514.9282,14.0499519 Z M509.856015,12.1986044 L509.856015,7.65899904 L513.863041,7.65899904 C515.815833,7.65899904 517.515014,7.9379692 517.515014,9.86539942 C517.515014,12.5790183 514.547786,12.1986044 512.366747,12.1986044 L509.856015,12.1986044 L509.856015,12.1986044 Z"
                    id="Shape" fill-rule="nonzero"></path>
            </g>
        </g>
    </g>
</svg>