<?xml version="1.0" encoding="UTF-8"?>
<svg width="527px" height="181px" viewBox="0 0 527 181" version="1.1" xmlns="http://www.w3.org/2000/svg" xmlns:xlink="http://www.w3.org/1999/xlink">
    <title>logo</title>
    <g id="Symbols" stroke="none" stroke-width="1" fill="none" fill-rule="evenodd">
        <g id="ml-mobile-topnav-2" transform="translate(-148.000000, -19.000000)" fill="#111111">
            <g id="mark-levinson_3300x2550-pix_white" transform="translate(148.000000, 19.000000)">
                <path d="M519.736766,166.113435 L515.82475,166.113435 L515.82475,173.182092 L517.521093,173.182092 L517.521093,170.204274 L518.878569,170.204274 L520.675169,173.182092 L522.626165,173.182092 L520.675169,170.204274 C522.094804,170.116558 522.890842,169.57051 522.890842,168.287583 C522.890842,166.628682 521.866219,166.113435 519.736766,166.113435 M519.756818,169.13779 L517.521093,169.13779 L517.521093,167.221099 L519.34777,167.221099 C520.149824,167.221099 521.310797,167.148951 521.310797,168.097085 C521.310797,168.967715 520.675169,169.142812 519.756818,169.13779" id="Fill-1"></path>
                <path d="M519.362512,162.579107 C515.432818,162.579107 512.291704,165.741167 512.291704,169.628194 C512.291704,173.548743 515.432818,176.716421 519.362512,176.716421 C523.24127,176.716421 526.423888,173.548743 526.423888,169.628194 C526.423888,165.741167 523.24127,162.579107 519.362512,162.579107 M519.362512,175.032199 C516.285541,175.032199 514.15562,172.812542 514.15562,169.628194 C514.15562,166.482986 516.285541,164.24086 519.362512,164.24086 C522.388547,164.24086 524.565632,166.482986 524.565632,169.628194 C524.565632,172.812542 522.388547,175.032199 519.362512,175.032199" id="Fill-2"></path>
                <path d="M156.024537,102.495524 C165.930423,102.495524 173.119265,95.2192055 173.119265,85.2206142 L173.119265,52.5997491 C173.119265,42.6071078 165.930423,35.3432841 156.024537,35.3432841 L123.086115,35.3432841 C113.180434,35.3432841 105.991387,42.6071078 105.991387,52.5997491 L105.991387,56.2012173 L114.13005,56.2012173 L114.13005,52.5997491 C114.13005,47.2035959 117.727639,43.5654366 123.086115,43.5654366 L156.024537,43.5654366 C161.383218,43.5654366 164.974267,47.2035959 164.974267,52.5997491 L164.974267,63.9596751 C161.056053,63.9596751 123.086115,63.9779215 123.086115,63.9779215 C113.180434,63.9779215 105.991387,71.2359936 105.991387,81.2468813 L105.991387,85.2206142 C105.991387,95.2192055 113.180434,102.495524 123.086115,102.495524 L156.024537,102.495524 Z M156.024537,94.2670248 L123.086115,94.2670248 C117.727639,94.2670248 114.13005,90.629064 114.13005,85.2206142 L114.13005,81.2468813 C114.13005,75.8445798 117.727639,72.2064206 123.086115,72.2064206 C123.086115,72.2064206 156.169013,72.2002723 164.974267,72.1881742 L164.974267,85.2206142 C164.974267,90.629064 161.383218,94.2670248 156.024537,94.2670248 L156.024537,94.2670248 Z" id="Fill-3"></path>
                <path d="M188.345974,49.3830442 C188.345974,44.2438752 192.293609,40.1859244 197.313699,40.1859244 L240.247144,40.1859244 L240.247144,31.8089557 L197.313699,31.8089557 C187.708935,31.8089557 180.185358,39.5333572 180.185358,49.3830442 L180.185358,98.9611955 L188.345974,98.9611955 L188.345974,49.3830442" id="Fill-4"></path>
                <path d="M255.477548,41.2204591 L297.632478,41.2204591 C302.727993,41.2204591 306.276802,44.9506971 306.276802,50.2558628 L306.276802,98.9611955 L314.441115,98.9611955 L314.441115,50.2558628 C314.441115,40.4085978 307.224519,32.9911645 297.632478,32.9911645 L270.333315,32.9911645 C282.645426,27.1792053 308.461474,15.2502191 308.461474,15.2502191 L304.98241,7.80818993 L303.013129,8.73013751 L255.477548,30.9215429 L255.477548,0 L247.313236,0 L247.313236,98.9611955 L255.477548,98.9611955 L255.477548,41.2204591" id="Fill-5"></path>
                <path d="M8.06381657,49.1344952 C8.06381657,44.7223976 11.6190739,40.1734061 17.5844936,40.1734061 L45.430739,40.1734061 L45.4246695,98.9611955 L53.4882838,98.9611955 L53.4882838,40.1734061 L83.488967,40.1734061 C87.5738815,40.1734061 90.8554085,45.0765445 90.8554085,49.1344952 L90.8616802,98.9611955 L98.9252945,98.9611955 L98.9129533,49.1344952 C98.9129533,40.0678081 91.5590553,31.8089557 83.488967,31.8089557 L17.5844936,31.8089557 C7.727369,31.8089557 0.00627172245,39.4152409 0.00627172245,49.1344952 L0,98.9611955 L8.05127312,98.9611955 L8.06381657,49.1344952" id="Fill-6"></path>
                <path d="M227.165489,117.927779 L269.129593,117.927779 C274.471999,117.927779 278.058082,121.627715 278.058082,127.149637 L278.058082,176.716421 L286.176745,176.716421 L286.176745,127.149637 C286.176745,116.951527 279.012739,109.564181 269.129593,109.564181 L219.048866,109.564181 L219.048866,176.716421 L227.165489,176.716421 L227.165489,117.927779" id="Fill-7"></path>
                <path d="M449.749442,117.927779 L491.701306,117.927779 C497.049832,117.927779 500.648154,121.627715 500.648154,127.149637 L500.648154,176.716421 L508.758657,176.716421 L508.758657,127.149637 C508.758657,116.951527 501.596691,109.564181 491.701306,109.564181 L441.630779,109.564181 L441.630779,176.716421 L449.749442,176.716421 L449.749442,117.927779" id="Fill-8"></path>
                <polygon id="Fill-9" points="204.916681 176.716421 211.982774 176.716421 211.982774 109.564181 204.916681 109.564181"></polygon>
                <path d="M380.889682,176.716421 L414.053718,176.716421 C423.733393,176.716421 431.03164,169.160157 431.03164,159.168431 L431.03164,126.819066 C431.03164,116.980039 423.851365,109.564181 414.317654,109.564181 L380.889682,109.564181 C371.208008,109.564181 363.903762,116.980039 363.903762,126.819066 L363.903762,159.168431 C363.903762,169.160157 371.208008,176.716421 380.889682,176.716421 M371.867849,126.819066 C371.867849,121.490634 375.576958,117.773484 380.889682,117.773484 L414.317654,117.773484 C419.474416,117.773484 423.075551,121.490634 423.075551,126.819066 L423.075551,159.168431 C423.075551,164.47247 419.204481,168.488675 414.053718,168.488675 L380.889682,168.488675 C375.742918,168.488675 371.867849,164.47247 371.867849,159.168431 L371.867849,126.819066" id="Fill-10"></path>
                <path d="M340.42553,168.493167 L296.015171,168.493167 L296.015171,176.716421 L340.42553,176.716421 C349.930395,176.716421 356.837669,169.450885 356.837669,159.44638 L356.837669,155.926489 C356.837669,145.916038 349.930395,138.668737 340.42553,138.668737 L309.678538,138.668737 C304.518698,138.668737 301.055243,135.020807 301.055243,129.597571 L301.055243,126.846312 C301.055243,121.417129 304.518698,117.775145 309.678538,117.775145 L354.112457,117.775145 L354.112457,109.564181 L309.678538,109.564181 C300.161892,109.564181 293.242837,116.823572 293.242837,126.846312 L293.242837,129.597571 C293.242837,139.614365 300.161892,146.89199 309.678538,146.89199 L340.42553,146.89199 C345.573589,146.89199 349.025263,150.515541 349.025263,155.926489 L349.025263,159.44638 C349.025263,164.839093 345.573589,168.493167 340.42553,168.493167" id="Fill-11"></path>
                <g id="Group-15" transform="translate(0.000000, 109.564181)">
                    <path d="M75.4880489,60.1593948 C70.0013461,60.1593948 66.5959114,56.6376956 66.5959114,50.9318153 L66.5959114,40.2793831 L125.879062,40.2793831 L125.879062,17.6802638 C125.879062,7.48209438 118.730349,0.0901652011 108.894525,0.0901652011 L75.4880489,0.0901652011 C65.6522245,0.0901652011 58.5160999,7.48209438 58.5160999,17.6802638 L58.5160999,50.9318153 C58.5160999,61.3105173 65.4958909,68.5469823 75.4880489,68.5469823 L124.929284,68.5469823 L124.929284,60.1593948 L75.4880489,60.1593948 Z M66.5959114,17.6802638 C66.5959114,12.154916 70.1702677,8.45268436 75.4880489,8.45268436 L108.894525,8.45268436 C114.2186,8.45268436 117.792956,12.154916 117.792956,17.6802638 L117.792956,31.8980626 L66.5959114,31.8980626 L66.5959114,17.6802638 L66.5959114,17.6802638 Z" id="Fill-12"></path>
                    <path d="M8.10498732,49.6674808 C8.10498732,54.8382327 12.0165776,58.8827283 16.9969218,58.8827283 L52.1346406,58.8827283 L52.1346406,67.2826478 L16.9969218,67.2826478 C7.48614961,67.2826478 0.0312667346,59.5361227 0.0312667346,49.6674808 L0,0.0889522164 L8.0798115,0.0889522164 L8.10498732,49.6674808" id="Fill-14"></path>
                </g>
                <path d="M188.449917,109.564181 C182.924581,119.786764 168.17563,149.187896 160.709442,162.972734 C153.249622,149.187896 138.481568,119.79308 132.943497,109.564181 L123.656618,109.564181 L160.721971,180.250749 L197.850589,109.564181 L188.449917,109.564181" id="Fill-16"></path>
                <path d="M416.353711,42.8005847 C406.001614,36.0413431 387.928796,24.2421438 383.27499,21.2059705 L383.27499,42.8005847 L321.507207,42.8005847 L321.507207,51.2926187 L340.1063,51.2926187 L340.1063,98.9611955 L491.111017,98.9611955 C500.88643,98.9611955 507.971991,91.4773986 507.971991,81.1461402 L507.971991,51.2926187 L526.423888,51.2926187 L526.423888,42.8005847 L416.353711,42.8005847 Z M499.948813,81.1461402 C499.948813,86.7401577 496.397967,90.4820561 491.111017,90.4820561 L348.137544,90.4820561 L348.137544,51.2926187 L383.27499,51.2926187 L383.27499,72.8495724 C386.644362,70.6699708 405.616485,58.2913319 416.341613,51.2926187 L499.948813,51.2926187 L499.948813,81.1461402 L499.948813,81.1461402 Z" id="Fill-17"></path>
            </g>
        </g>
    </g>
</svg>